<?xml version="1.0" encoding="UTF-8" standalone="no"?>
<!DOCTYPE svg PUBLIC "-//W3C//DTD SVG 1.1//EN"
 "http://www.w3.org/Graphics/SVG/1.1/DTD/svg11.dtd">
<!-- Generated by graphviz version 2.47.0 (20210316.0004)
 -->
<!-- Title: dependencies Pages: 1 -->
<svg width="504pt" height="211pt"
 viewBox="0.00 0.00 504.00 211.00" xmlns="http://www.w3.org/2000/svg" xmlns:xlink="http://www.w3.org/1999/xlink">
<g id="graph0" class="graph" transform="scale(1 1) rotate(0) translate(4 207)">
<title>dependencies</title>
<polygon fill="white" stroke="transparent" points="-4,4 -4,-207 500,-207 500,4 -4,4"/>
<text text-anchor="start" x="227.01" y="-42.4" font-family="Times-12" font-weight="bold" font-size="14.00">Legend</text>
<polygon fill="#ffffb3" stroke="transparent" points="14,-10 14,-30 34,-30 34,-10 14,-10"/>
<text text-anchor="start" x="37.63" y="-15.4" font-family="Times-12" font-size="14.00"> &#160;Declarations</text>
<polygon fill="#8dd3c7" stroke="transparent" points="127,-10 127,-30 147,-30 147,-10 127,-10"/>
<text text-anchor="start" x="150.73" y="-15.4" font-family="Times-12" font-size="14.00"> &#160;Module</text>
<polygon fill="#80b1d3" stroke="transparent" points="213,-10 213,-30 233,-30 233,-10 213,-10"/>
<text text-anchor="start" x="236.78" y="-15.4" font-family="Times-12" font-size="14.00"> &#160;Bootstrap</text>
<polygon fill="#fdb462" stroke="transparent" points="310,-10 310,-30 330,-30 330,-10 310,-10"/>
<text text-anchor="start" x="333.67" y="-15.4" font-family="Times-12" font-size="14.00"> &#160;Providers</text>
<polygon fill="#fb8072" stroke="transparent" points="406,-10 406,-30 426,-30 426,-10 406,-10"/>
<text text-anchor="start" x="429.73" y="-15.4" font-family="Times-12" font-size="14.00"> &#160;Exports</text>
<g id="clust1" class="cluster">
<title>cluster_PerfilModule</title>
<polygon fill="none" stroke="black" stroke-dasharray="1,5" points="96,-70 96,-195 400,-195 400,-70 96,-70"/>
</g>
<g id="clust2" class="cluster">
<title>cluster_PerfilModule_declarations</title>
<polygon fill="none" stroke="black" points="264,-78 264,-130 392,-130 392,-78 264,-78"/>
</g>
<g id="clust4" class="cluster">
<title>cluster_PerfilModule_imports</title>
<polygon fill="none" stroke="black" points="104,-78 104,-130 256,-130 256,-78 104,-78"/>
</g>
<!-- PerfilComponent -->
<g id="node1" class="node">
<title>PerfilComponent</title>
<polygon fill="#ffffb3" stroke="black" points="384.43,-122 271.57,-122 271.57,-86 384.43,-86 384.43,-122"/>
<text text-anchor="middle" x="328" y="-99.8" font-family="Times,serif" font-size="14.00">PerfilComponent</text>
</g>
<!-- PerfilModule -->
<g id="node2" class="node">
<title>PerfilModule</title>
<polygon fill="#8dd3c7" stroke="black" points="299.15,-187 296.15,-191 275.15,-191 272.15,-187 208.85,-187 208.85,-151 299.15,-151 299.15,-187"/>
<text text-anchor="middle" x="254" y="-164.8" font-family="Times,serif" font-size="14.00">PerfilModule</text>
</g>
<!-- PerfilComponent&#45;&gt;PerfilModule -->
<g id="edge1" class="edge">
<title>PerfilComponent&#45;&gt;PerfilModule</title>
<path fill="none" stroke="black" d="M285.55,-122.11C285.55,-122.11 285.55,-140.99 285.55,-140.99"/>
<polygon fill="black" stroke="black" points="282.05,-140.99 285.55,-150.99 289.05,-140.99 282.05,-140.99"/>
</g>
<!-- PerfilRoutingModule -->
<g id="node3" class="node">
<title>PerfilRoutingModule</title>
<polygon fill="#8dd3c7" stroke="black" points="247.77,-122 244.77,-126 223.77,-126 220.77,-122 112.23,-122 112.23,-86 247.77,-86 247.77,-122"/>
<text text-anchor="middle" x="180" y="-99.8" font-family="Times,serif" font-size="14.00">PerfilRoutingModule</text>
</g>
<!-- PerfilRoutingModule&#45;&gt;PerfilModule -->
<g id="edge2" class="edge">
<title>PerfilRoutingModule&#45;&gt;PerfilModule</title>
<path fill="none" stroke="black" d="M228.28,-122.11C228.28,-122.11 228.28,-140.99 228.28,-140.99"/>
<polygon fill="black" stroke="black" points="224.78,-140.99 228.28,-150.99 231.78,-140.99 224.78,-140.99"/>
</g>
</g>
</svg>
