<?xml version="1.0" encoding="UTF-8" standalone="no"?>
<!DOCTYPE svg PUBLIC "-//W3C//DTD SVG 1.1//EN"
 "http://www.w3.org/Graphics/SVG/1.1/DTD/svg11.dtd">
<!-- Generated by graphviz version 2.47.0 (20210316.0004)
 -->
<!-- Title: dependencies Pages: 1 -->
<svg width="504pt" height="211pt"
 viewBox="0.00 0.00 504.00 211.00" xmlns="http://www.w3.org/2000/svg" xmlns:xlink="http://www.w3.org/1999/xlink">
<g id="graph0" class="graph" transform="scale(1 1) rotate(0) translate(4 207)">
<title>dependencies</title>
<polygon fill="white" stroke="transparent" points="-4,4 -4,-207 500,-207 500,4 -4,4"/>
<text text-anchor="start" x="227.01" y="-42.4" font-family="Times-12" font-weight="bold" font-size="14.00">Legend</text>
<polygon fill="#ffffb3" stroke="transparent" points="14,-10 14,-30 34,-30 34,-10 14,-10"/>
<text text-anchor="start" x="37.63" y="-15.4" font-family="Times-12" font-size="14.00"> &#160;Declarations</text>
<polygon fill="#8dd3c7" stroke="transparent" points="127,-10 127,-30 147,-30 147,-10 127,-10"/>
<text text-anchor="start" x="150.73" y="-15.4" font-family="Times-12" font-size="14.00"> &#160;Module</text>
<polygon fill="#80b1d3" stroke="transparent" points="213,-10 213,-30 233,-30 233,-10 213,-10"/>
<text text-anchor="start" x="236.78" y="-15.4" font-family="Times-12" font-size="14.00"> &#160;Bootstrap</text>
<polygon fill="#fdb462" stroke="transparent" points="310,-10 310,-30 330,-30 330,-10 310,-10"/>
<text text-anchor="start" x="333.67" y="-15.4" font-family="Times-12" font-size="14.00"> &#160;Providers</text>
<polygon fill="#fb8072" stroke="transparent" points="406,-10 406,-30 426,-30 426,-10 406,-10"/>
<text text-anchor="start" x="429.73" y="-15.4" font-family="Times-12" font-size="14.00"> &#160;Exports</text>
<g id="clust1" class="cluster">
<title>cluster_CategoriaProductoModule</title>
<polygon fill="none" stroke="black" stroke-dasharray="1,5" points="22,-70 22,-195 474,-195 474,-70 22,-70"/>
</g>
<g id="clust4" class="cluster">
<title>cluster_CategoriaProductoModule_imports</title>
<polygon fill="none" stroke="black" points="240,-78 240,-130 466,-130 466,-78 240,-78"/>
</g>
<g id="clust2" class="cluster">
<title>cluster_CategoriaProductoModule_declarations</title>
<polygon fill="none" stroke="black" points="30,-78 30,-130 232,-130 232,-78 30,-78"/>
</g>
<!-- CategoriaProductoComponent -->
<g id="node1" class="node">
<title>CategoriaProductoComponent</title>
<polygon fill="#ffffb3" stroke="black" points="224.3,-122 37.7,-122 37.7,-86 224.3,-86 224.3,-122"/>
<text text-anchor="middle" x="131" y="-99.8" font-family="Times,serif" font-size="14.00">CategoriaProductoComponent</text>
</g>
<!-- CategoriaProductoModule -->
<g id="node2" class="node">
<title>CategoriaProductoModule</title>
<polygon fill="#8dd3c7" stroke="black" points="324.02,-187 321.02,-191 300.02,-191 297.02,-187 159.98,-187 159.98,-151 324.02,-151 324.02,-187"/>
<text text-anchor="middle" x="242" y="-164.8" font-family="Times,serif" font-size="14.00">CategoriaProductoModule</text>
</g>
<!-- CategoriaProductoComponent&#45;&gt;CategoriaProductoModule -->
<g id="edge1" class="edge">
<title>CategoriaProductoComponent&#45;&gt;CategoriaProductoModule</title>
<path fill="none" stroke="black" d="M191.95,-122.11C191.95,-122.11 191.95,-140.99 191.95,-140.99"/>
<polygon fill="black" stroke="black" points="188.45,-140.99 191.95,-150.99 195.45,-140.99 188.45,-140.99"/>
</g>
<!-- CategoriaProductoRoutingModule -->
<g id="node3" class="node">
<title>CategoriaProductoRoutingModule</title>
<polygon fill="#8dd3c7" stroke="black" points="457.64,-122 454.64,-126 433.64,-126 430.64,-122 248.36,-122 248.36,-86 457.64,-86 457.64,-122"/>
<text text-anchor="middle" x="353" y="-99.8" font-family="Times,serif" font-size="14.00">CategoriaProductoRoutingModule</text>
</g>
<!-- CategoriaProductoRoutingModule&#45;&gt;CategoriaProductoModule -->
<g id="edge2" class="edge">
<title>CategoriaProductoRoutingModule&#45;&gt;CategoriaProductoModule</title>
<path fill="none" stroke="black" d="M286.22,-122.11C286.22,-122.11 286.22,-140.99 286.22,-140.99"/>
<polygon fill="black" stroke="black" points="282.72,-140.99 286.22,-150.99 289.72,-140.99 282.72,-140.99"/>
</g>
</g>
</svg>
