<?xml version="1.0" encoding="UTF-8" standalone="no"?>
<!DOCTYPE svg PUBLIC "-//W3C//DTD SVG 1.1//EN"
 "http://www.w3.org/Graphics/SVG/1.1/DTD/svg11.dtd">
<!-- Generated by graphviz version 2.47.0 (20210316.0004)
 -->
<!-- Title: dependencies Pages: 1 -->
<svg width="504pt" height="284pt"
 viewBox="0.00 0.00 504.00 284.00" xmlns="http://www.w3.org/2000/svg" xmlns:xlink="http://www.w3.org/1999/xlink">
<g id="graph0" class="graph" transform="scale(1 1) rotate(0) translate(4 280)">
<title>dependencies</title>
<polygon fill="white" stroke="transparent" points="-4,4 -4,-280 500,-280 500,4 -4,4"/>
<text text-anchor="start" x="227.01" y="-42.4" font-family="Times-12" font-weight="bold" font-size="14.00">Legend</text>
<polygon fill="#ffffb3" stroke="transparent" points="14,-10 14,-30 34,-30 34,-10 14,-10"/>
<text text-anchor="start" x="37.63" y="-15.4" font-family="Times-12" font-size="14.00"> &#160;Declarations</text>
<polygon fill="#8dd3c7" stroke="transparent" points="127,-10 127,-30 147,-30 147,-10 127,-10"/>
<text text-anchor="start" x="150.73" y="-15.4" font-family="Times-12" font-size="14.00"> &#160;Module</text>
<polygon fill="#80b1d3" stroke="transparent" points="213,-10 213,-30 233,-30 233,-10 213,-10"/>
<text text-anchor="start" x="236.78" y="-15.4" font-family="Times-12" font-size="14.00"> &#160;Bootstrap</text>
<polygon fill="#fdb462" stroke="transparent" points="310,-10 310,-30 330,-30 330,-10 310,-10"/>
<text text-anchor="start" x="333.67" y="-15.4" font-family="Times-12" font-size="14.00"> &#160;Providers</text>
<polygon fill="#fb8072" stroke="transparent" points="406,-10 406,-30 426,-30 426,-10 406,-10"/>
<text text-anchor="start" x="429.73" y="-15.4" font-family="Times-12" font-size="14.00"> &#160;Exports</text>
<g id="clust1" class="cluster">
<title>cluster_ComponentsModule</title>
<polygon fill="none" stroke="black" stroke-dasharray="1,5" points="99.5,-70 99.5,-268 396.5,-268 396.5,-70 99.5,-70"/>
</g>
<g id="clust6" class="cluster">
<title>cluster_ComponentsModule_exports</title>
<polygon fill="none" stroke="black" points="107.5,-208 107.5,-260 388.5,-260 388.5,-208 107.5,-208"/>
</g>
<g id="clust2" class="cluster">
<title>cluster_ComponentsModule_declarations</title>
<polygon fill="none" stroke="black" points="111.5,-78 111.5,-130 385.5,-130 385.5,-78 111.5,-78"/>
</g>
<!-- FooterComponent -->
<g id="node1" class="node">
<title>FooterComponent</title>
<polygon fill="#ffffb3" stroke="black" points="377.38,-122 259.62,-122 259.62,-86 377.38,-86 377.38,-122"/>
<text text-anchor="middle" x="318.5" y="-99.8" font-family="Times,serif" font-size="14.00">FooterComponent</text>
</g>
<!-- ComponentsModule -->
<g id="node3" class="node">
<title>ComponentsModule</title>
<polygon fill="#8dd3c7" stroke="black" points="246.83,-187 243.83,-191 222.83,-191 219.83,-187 116.17,-187 116.17,-151 246.83,-151 246.83,-187"/>
<text text-anchor="middle" x="181.5" y="-164.8" font-family="Times,serif" font-size="14.00">ComponentsModule</text>
</g>
<!-- FooterComponent&#45;&gt;ComponentsModule -->
<g id="edge1" class="edge">
<title>FooterComponent&#45;&gt;ComponentsModule</title>
<path fill="none" stroke="black" d="M338.15,-122.02C338.15,-139.37 338.15,-163 338.15,-163 338.15,-163 257.02,-163 257.02,-163"/>
<polygon fill="black" stroke="black" points="257.02,-159.5 247.02,-163 257.02,-166.5 257.02,-159.5"/>
</g>
<!-- HeaderComponent -->
<g id="node2" class="node">
<title>HeaderComponent</title>
<polygon fill="#ffffb3" stroke="black" points="241.24,-122 119.76,-122 119.76,-86 241.24,-86 241.24,-122"/>
<text text-anchor="middle" x="180.5" y="-99.8" font-family="Times,serif" font-size="14.00">HeaderComponent</text>
</g>
<!-- HeaderComponent&#45;&gt;ComponentsModule -->
<g id="edge2" class="edge">
<title>HeaderComponent&#45;&gt;ComponentsModule</title>
<path fill="none" stroke="black" d="M180.5,-122.11C180.5,-122.11 180.5,-140.99 180.5,-140.99"/>
<polygon fill="black" stroke="black" points="177,-140.99 180.5,-150.99 184,-140.99 177,-140.99"/>
</g>
<!-- FooterComponent  -->
<g id="node4" class="node">
<title>FooterComponent </title>
<polygon fill="#fb8072" stroke="black" points="380.38,-252 258.62,-252 258.62,-216 380.38,-216 380.38,-252"/>
<text text-anchor="middle" x="319.5" y="-229.8" font-family="Times,serif" font-size="14.00">FooterComponent </text>
</g>
<!-- ComponentsModule&#45;&gt;FooterComponent  -->
<g id="edge3" class="edge">
<title>ComponentsModule&#45;&gt;FooterComponent </title>
<path fill="none" stroke="black" stroke-dasharray="5,2" d="M246.7,-175C273.71,-175 298.85,-175 298.85,-175 298.85,-175 298.85,-205.98 298.85,-205.98"/>
<polygon fill="black" stroke="black" points="295.35,-205.98 298.85,-215.98 302.35,-205.98 295.35,-205.98"/>
</g>
<!-- HeaderComponent  -->
<g id="node5" class="node">
<title>HeaderComponent </title>
<polygon fill="#fb8072" stroke="black" points="241.24,-252 115.76,-252 115.76,-216 241.24,-216 241.24,-252"/>
<text text-anchor="middle" x="178.5" y="-229.8" font-family="Times,serif" font-size="14.00">HeaderComponent </text>
</g>
<!-- ComponentsModule&#45;&gt;HeaderComponent  -->
<g id="edge4" class="edge">
<title>ComponentsModule&#45;&gt;HeaderComponent </title>
<path fill="none" stroke="black" stroke-dasharray="5,2" d="M178.73,-187.11C178.73,-187.11 178.73,-205.99 178.73,-205.99"/>
<polygon fill="black" stroke="black" points="175.23,-205.99 178.73,-215.99 182.23,-205.99 175.23,-205.99"/>
</g>
</g>
</svg>
