<?xml version="1.0" encoding="UTF-8" standalone="no"?>
<!DOCTYPE svg PUBLIC "-//W3C//DTD SVG 1.1//EN"
 "http://www.w3.org/Graphics/SVG/1.1/DTD/svg11.dtd">
<!-- Generated by graphviz version 2.47.0 (20210316.0004)
 -->
<!-- Title: dependencies Pages: 1 -->
<svg width="504pt" height="211pt"
 viewBox="0.00 0.00 504.00 211.00" xmlns="http://www.w3.org/2000/svg" xmlns:xlink="http://www.w3.org/1999/xlink">
<g id="graph0" class="graph" transform="scale(1 1) rotate(0) translate(4 207)">
<title>dependencies</title>
<polygon fill="white" stroke="transparent" points="-4,4 -4,-207 500,-207 500,4 -4,4"/>
<text text-anchor="start" x="227.01" y="-42.4" font-family="Times-12" font-weight="bold" font-size="14.00">Legend</text>
<polygon fill="#ffffb3" stroke="transparent" points="14,-10 14,-30 34,-30 34,-10 14,-10"/>
<text text-anchor="start" x="37.63" y="-15.4" font-family="Times-12" font-size="14.00"> &#160;Declarations</text>
<polygon fill="#8dd3c7" stroke="transparent" points="127,-10 127,-30 147,-30 147,-10 127,-10"/>
<text text-anchor="start" x="150.73" y="-15.4" font-family="Times-12" font-size="14.00"> &#160;Module</text>
<polygon fill="#80b1d3" stroke="transparent" points="213,-10 213,-30 233,-30 233,-10 213,-10"/>
<text text-anchor="start" x="236.78" y="-15.4" font-family="Times-12" font-size="14.00"> &#160;Bootstrap</text>
<polygon fill="#fdb462" stroke="transparent" points="310,-10 310,-30 330,-30 330,-10 310,-10"/>
<text text-anchor="start" x="333.67" y="-15.4" font-family="Times-12" font-size="14.00"> &#160;Providers</text>
<polygon fill="#fb8072" stroke="transparent" points="406,-10 406,-30 426,-30 426,-10 406,-10"/>
<text text-anchor="start" x="429.73" y="-15.4" font-family="Times-12" font-size="14.00"> &#160;Exports</text>
<g id="clust1" class="cluster">
<title>cluster_RecuperarPwModule</title>
<polygon fill="none" stroke="black" stroke-dasharray="1,5" points="52,-70 52,-195 444,-195 444,-70 52,-70"/>
</g>
<g id="clust2" class="cluster">
<title>cluster_RecuperarPwModule_declarations</title>
<polygon fill="none" stroke="black" points="264,-78 264,-130 436,-130 436,-78 264,-78"/>
</g>
<g id="clust4" class="cluster">
<title>cluster_RecuperarPwModule_imports</title>
<polygon fill="none" stroke="black" points="60,-78 60,-130 256,-130 256,-78 60,-78"/>
</g>
<!-- RecuperarPwComponent -->
<g id="node1" class="node">
<title>RecuperarPwComponent</title>
<polygon fill="#ffffb3" stroke="black" points="428.24,-122 271.76,-122 271.76,-86 428.24,-86 428.24,-122"/>
<text text-anchor="middle" x="350" y="-99.8" font-family="Times,serif" font-size="14.00">RecuperarPwComponent</text>
</g>
<!-- RecuperarPwModule -->
<g id="node2" class="node">
<title>RecuperarPwModule</title>
<polygon fill="#8dd3c7" stroke="black" points="321.46,-187 318.46,-191 297.46,-191 294.46,-187 186.54,-187 186.54,-151 321.46,-151 321.46,-187"/>
<text text-anchor="middle" x="254" y="-164.8" font-family="Times,serif" font-size="14.00">RecuperarPwModule</text>
</g>
<!-- RecuperarPwComponent&#45;&gt;RecuperarPwModule -->
<g id="edge1" class="edge">
<title>RecuperarPwComponent&#45;&gt;RecuperarPwModule</title>
<path fill="none" stroke="black" d="M296.55,-122.11C296.55,-122.11 296.55,-140.99 296.55,-140.99"/>
<polygon fill="black" stroke="black" points="293.05,-140.99 296.55,-150.99 300.05,-140.99 293.05,-140.99"/>
</g>
<!-- RecuperarPwRoutingModule -->
<g id="node3" class="node">
<title>RecuperarPwRoutingModule</title>
<polygon fill="#8dd3c7" stroke="black" points="248.07,-122 245.07,-126 224.07,-126 221.07,-122 67.93,-122 67.93,-86 248.07,-86 248.07,-122"/>
<text text-anchor="middle" x="158" y="-99.8" font-family="Times,serif" font-size="14.00">RecuperarPwRoutingModule</text>
</g>
<!-- RecuperarPwRoutingModule&#45;&gt;RecuperarPwModule -->
<g id="edge2" class="edge">
<title>RecuperarPwRoutingModule&#45;&gt;RecuperarPwModule</title>
<path fill="none" stroke="black" d="M217.28,-122.11C217.28,-122.11 217.28,-140.99 217.28,-140.99"/>
<polygon fill="black" stroke="black" points="213.78,-140.99 217.28,-150.99 220.78,-140.99 213.78,-140.99"/>
</g>
</g>
</svg>
