<?xml version="1.0" encoding="UTF-8" standalone="no"?>
<!DOCTYPE svg PUBLIC "-//W3C//DTD SVG 1.1//EN"
 "http://www.w3.org/Graphics/SVG/1.1/DTD/svg11.dtd">
<!-- Generated by graphviz version 2.47.0 (20210316.0004)
 -->
<!-- Title: dependencies Pages: 1 -->
<svg width="3487pt" height="284pt"
 viewBox="0.00 0.00 3487.00 284.00" xmlns="http://www.w3.org/2000/svg" xmlns:xlink="http://www.w3.org/1999/xlink">
<g id="graph0" class="graph" transform="scale(1 1) rotate(0) translate(4 280)">
<title>dependencies</title>
<polygon fill="white" stroke="transparent" points="-4,4 -4,-280 3483,-280 3483,4 -4,4"/>
<text text-anchor="start" x="1718.51" y="-42.4" font-family="Times-12" font-weight="bold" font-size="14.00">Legend</text>
<polygon fill="#ffffb3" stroke="transparent" points="1505.5,-10 1505.5,-30 1525.5,-30 1525.5,-10 1505.5,-10"/>
<text text-anchor="start" x="1529.13" y="-15.4" font-family="Times-12" font-size="14.00"> &#160;Declarations</text>
<polygon fill="#8dd3c7" stroke="transparent" points="1618.5,-10 1618.5,-30 1638.5,-30 1638.5,-10 1618.5,-10"/>
<text text-anchor="start" x="1642.23" y="-15.4" font-family="Times-12" font-size="14.00"> &#160;Module</text>
<polygon fill="#80b1d3" stroke="transparent" points="1704.5,-10 1704.5,-30 1724.5,-30 1724.5,-10 1704.5,-10"/>
<text text-anchor="start" x="1728.28" y="-15.4" font-family="Times-12" font-size="14.00"> &#160;Bootstrap</text>
<polygon fill="#fdb462" stroke="transparent" points="1801.5,-10 1801.5,-30 1821.5,-30 1821.5,-10 1801.5,-10"/>
<text text-anchor="start" x="1825.17" y="-15.4" font-family="Times-12" font-size="14.00"> &#160;Providers</text>
<polygon fill="#fb8072" stroke="transparent" points="1897.5,-10 1897.5,-30 1917.5,-30 1917.5,-10 1897.5,-10"/>
<text text-anchor="start" x="1921.23" y="-15.4" font-family="Times-12" font-size="14.00"> &#160;Exports</text>
<g id="clust1" class="cluster">
<title>cluster_AdminPanelModule</title>
<polygon fill="none" stroke="black" stroke-dasharray="1,5" points="8,-70 8,-195 390,-195 390,-70 8,-70"/>
</g>
<g id="clust2" class="cluster">
<title>cluster_AdminPanelModule_declarations</title>
<polygon fill="none" stroke="black" points="214,-78 214,-130 382,-130 382,-78 214,-78"/>
</g>
<g id="clust4" class="cluster">
<title>cluster_AdminPanelModule_imports</title>
<polygon fill="none" stroke="black" points="16,-78 16,-130 206,-130 206,-78 16,-78"/>
</g>
<g id="clust14" class="cluster">
<title>cluster_AppModule</title>
<polygon fill="none" stroke="black" stroke-dasharray="1,5" points="398,-70 398,-268 688,-268 688,-70 398,-70"/>
</g>
<g id="clust15" class="cluster">
<title>cluster_AppModule_declarations</title>
<polygon fill="none" stroke="black" points="558,-78 558,-130 680,-130 680,-78 558,-78"/>
</g>
<g id="clust17" class="cluster">
<title>cluster_AppModule_imports</title>
<polygon fill="none" stroke="black" points="406,-78 406,-130 550,-130 550,-78 406,-78"/>
</g>
<g id="clust19" class="cluster">
<title>cluster_AppModule_bootstrap</title>
<polygon fill="none" stroke="black" points="486,-208 486,-260 610,-260 610,-208 486,-208"/>
</g>
<g id="clust27" class="cluster">
<title>cluster_CarritoModule</title>
<polygon fill="none" stroke="black" stroke-dasharray="1,5" points="696,-70 696,-195 1016,-195 1016,-70 696,-70"/>
</g>
<g id="clust28" class="cluster">
<title>cluster_CarritoModule_declarations</title>
<polygon fill="none" stroke="black" points="872,-78 872,-130 1008,-130 1008,-78 872,-78"/>
</g>
<g id="clust30" class="cluster">
<title>cluster_CarritoModule_imports</title>
<polygon fill="none" stroke="black" points="704,-78 704,-130 864,-130 864,-78 704,-78"/>
</g>
<g id="clust40" class="cluster">
<title>cluster_CategoriaProductoModule</title>
<polygon fill="none" stroke="black" stroke-dasharray="1,5" points="1024,-70 1024,-195 1476,-195 1476,-70 1024,-70"/>
</g>
<g id="clust41" class="cluster">
<title>cluster_CategoriaProductoModule_declarations</title>
<polygon fill="none" stroke="black" points="1266,-78 1266,-130 1468,-130 1468,-78 1266,-78"/>
</g>
<g id="clust43" class="cluster">
<title>cluster_CategoriaProductoModule_imports</title>
<polygon fill="none" stroke="black" points="1032,-78 1032,-130 1258,-130 1258,-78 1032,-78"/>
</g>
<g id="clust53" class="cluster">
<title>cluster_ComponentsModule</title>
<polygon fill="none" stroke="black" stroke-dasharray="1,5" points="1484,-70 1484,-268 1781,-268 1781,-70 1484,-70"/>
</g>
<g id="clust54" class="cluster">
<title>cluster_ComponentsModule_declarations</title>
<polygon fill="none" stroke="black" points="1496,-78 1496,-130 1770,-130 1770,-78 1496,-78"/>
</g>
<g id="clust58" class="cluster">
<title>cluster_ComponentsModule_exports</title>
<polygon fill="none" stroke="black" points="1492,-208 1492,-260 1773,-260 1773,-208 1492,-208"/>
</g>
<g id="clust61" class="cluster">
<title>cluster_HomeModule</title>
<polygon fill="none" stroke="black" stroke-dasharray="1,5" points="1789,-70 1789,-195 2099,-195 2099,-70 1789,-70"/>
</g>
<g id="clust62" class="cluster">
<title>cluster_HomeModule_declarations</title>
<polygon fill="none" stroke="black" points="1959,-78 1959,-130 2091,-130 2091,-78 1959,-78"/>
</g>
<g id="clust64" class="cluster">
<title>cluster_HomeModule_imports</title>
<polygon fill="none" stroke="black" points="1797,-78 1797,-130 1951,-130 1951,-78 1797,-78"/>
</g>
<g id="clust74" class="cluster">
<title>cluster_LoginModule</title>
<polygon fill="none" stroke="black" stroke-dasharray="1,5" points="2107,-70 2107,-195 2415,-195 2415,-70 2107,-70"/>
</g>
<g id="clust75" class="cluster">
<title>cluster_LoginModule_declarations</title>
<polygon fill="none" stroke="black" points="2277,-78 2277,-130 2407,-130 2407,-78 2277,-78"/>
</g>
<g id="clust77" class="cluster">
<title>cluster_LoginModule_imports</title>
<polygon fill="none" stroke="black" points="2115,-78 2115,-130 2269,-130 2269,-78 2115,-78"/>
</g>
<g id="clust87" class="cluster">
<title>cluster_PerfilModule</title>
<polygon fill="none" stroke="black" stroke-dasharray="1,5" points="2423,-70 2423,-195 2727,-195 2727,-70 2423,-70"/>
</g>
<g id="clust88" class="cluster">
<title>cluster_PerfilModule_declarations</title>
<polygon fill="none" stroke="black" points="2591,-78 2591,-130 2719,-130 2719,-78 2591,-78"/>
</g>
<g id="clust90" class="cluster">
<title>cluster_PerfilModule_imports</title>
<polygon fill="none" stroke="black" points="2431,-78 2431,-130 2583,-130 2583,-78 2431,-78"/>
</g>
<g id="clust100" class="cluster">
<title>cluster_RecuperarPwModule</title>
<polygon fill="none" stroke="black" stroke-dasharray="1,5" points="2735,-70 2735,-195 3127,-195 3127,-70 2735,-70"/>
</g>
<g id="clust101" class="cluster">
<title>cluster_RecuperarPwModule_declarations</title>
<polygon fill="none" stroke="black" points="2947,-78 2947,-130 3119,-130 3119,-78 2947,-78"/>
</g>
<g id="clust103" class="cluster">
<title>cluster_RecuperarPwModule_imports</title>
<polygon fill="none" stroke="black" points="2743,-78 2743,-130 2939,-130 2939,-78 2743,-78"/>
</g>
<g id="clust113" class="cluster">
<title>cluster_RegistroModule</title>
<polygon fill="none" stroke="black" stroke-dasharray="1,5" points="3135,-70 3135,-195 3471,-195 3471,-70 3135,-70"/>
</g>
<g id="clust114" class="cluster">
<title>cluster_RegistroModule_declarations</title>
<polygon fill="none" stroke="black" points="3319,-78 3319,-130 3463,-130 3463,-78 3319,-78"/>
</g>
<g id="clust116" class="cluster">
<title>cluster_RegistroModule_imports</title>
<polygon fill="none" stroke="black" points="3143,-78 3143,-130 3311,-130 3311,-78 3143,-78"/>
</g>
<!-- AdminPanelComponent -->
<g id="node1" class="node">
<title>AdminPanelComponent</title>
<polygon fill="#ffffb3" stroke="black" points="373.82,-122 222.18,-122 222.18,-86 373.82,-86 373.82,-122"/>
<text text-anchor="middle" x="298" y="-99.8" font-family="Times,serif" font-size="14.00">AdminPanelComponent</text>
</g>
<!-- AdminPanelModule -->
<g id="node2" class="node">
<title>AdminPanelModule</title>
<polygon fill="#8dd3c7" stroke="black" points="268.54,-187 265.54,-191 244.54,-191 241.54,-187 139.46,-187 139.46,-151 268.54,-151 268.54,-187"/>
<text text-anchor="middle" x="204" y="-164.8" font-family="Times,serif" font-size="14.00">AdminPanelModule</text>
</g>
<!-- AdminPanelComponent&#45;&gt;AdminPanelModule -->
<g id="edge1" class="edge">
<title>AdminPanelComponent&#45;&gt;AdminPanelModule</title>
<path fill="none" stroke="black" d="M245.55,-122.11C245.55,-122.11 245.55,-140.99 245.55,-140.99"/>
<polygon fill="black" stroke="black" points="242.05,-140.99 245.55,-150.99 249.05,-140.99 242.05,-140.99"/>
</g>
<!-- AdminPanelRoutingModule -->
<g id="node3" class="node">
<title>AdminPanelRoutingModule</title>
<polygon fill="#8dd3c7" stroke="black" points="198.16,-122 195.16,-126 174.16,-126 171.16,-122 23.84,-122 23.84,-86 198.16,-86 198.16,-122"/>
<text text-anchor="middle" x="111" y="-99.8" font-family="Times,serif" font-size="14.00">AdminPanelRoutingModule</text>
</g>
<!-- AdminPanelRoutingModule&#45;&gt;AdminPanelModule -->
<g id="edge2" class="edge">
<title>AdminPanelRoutingModule&#45;&gt;AdminPanelModule</title>
<path fill="none" stroke="black" d="M168.78,-122.11C168.78,-122.11 168.78,-140.99 168.78,-140.99"/>
<polygon fill="black" stroke="black" points="165.28,-140.99 168.78,-150.99 172.28,-140.99 165.28,-140.99"/>
</g>
<!-- AppComponent -->
<g id="node4" class="node">
<title>AppComponent</title>
<polygon fill="#ffffb3" stroke="black" points="671.94,-122 566.06,-122 566.06,-86 671.94,-86 671.94,-122"/>
<text text-anchor="middle" x="619" y="-99.8" font-family="Times,serif" font-size="14.00">AppComponent</text>
</g>
<!-- AppModule -->
<g id="node5" class="node">
<title>AppModule</title>
<polygon fill="#8dd3c7" stroke="black" points="589.66,-187 586.66,-191 565.66,-191 562.66,-187 506.34,-187 506.34,-151 589.66,-151 589.66,-187"/>
<text text-anchor="middle" x="548" y="-164.8" font-family="Times,serif" font-size="14.00">AppModule</text>
</g>
<!-- AppComponent&#45;&gt;AppModule -->
<g id="edge3" class="edge">
<title>AppComponent&#45;&gt;AppModule</title>
<path fill="none" stroke="black" d="M578.05,-122.11C578.05,-122.11 578.05,-140.99 578.05,-140.99"/>
<polygon fill="black" stroke="black" points="574.55,-140.99 578.05,-150.99 581.55,-140.99 574.55,-140.99"/>
</g>
<!-- AppComponent  -->
<g id="node7" class="node">
<title>AppComponent </title>
<polygon fill="#80b1d3" stroke="black" points="602.44,-252 493.56,-252 493.56,-216 602.44,-216 602.44,-252"/>
<text text-anchor="middle" x="548" y="-229.8" font-family="Times,serif" font-size="14.00">AppComponent </text>
</g>
<!-- AppModule&#45;&gt;AppComponent  -->
<g id="edge5" class="edge">
<title>AppModule&#45;&gt;AppComponent </title>
<path fill="none" stroke="black" stroke-dasharray="1,5" d="M548,-187.11C548,-187.11 548,-205.99 548,-205.99"/>
<polygon fill="black" stroke="black" points="544.5,-205.99 548,-215.99 551.5,-205.99 544.5,-205.99"/>
</g>
<!-- AppRoutingModule -->
<g id="node6" class="node">
<title>AppRoutingModule</title>
<polygon fill="#8dd3c7" stroke="black" points="542.27,-122 539.27,-126 518.27,-126 515.27,-122 413.73,-122 413.73,-86 542.27,-86 542.27,-122"/>
<text text-anchor="middle" x="478" y="-99.8" font-family="Times,serif" font-size="14.00">AppRoutingModule</text>
</g>
<!-- AppRoutingModule&#45;&gt;AppModule -->
<g id="edge4" class="edge">
<title>AppRoutingModule&#45;&gt;AppModule</title>
<path fill="none" stroke="black" d="M524.28,-122.11C524.28,-122.11 524.28,-140.99 524.28,-140.99"/>
<polygon fill="black" stroke="black" points="520.78,-140.99 524.28,-150.99 527.78,-140.99 520.78,-140.99"/>
</g>
<!-- CarritoComponent -->
<g id="node8" class="node">
<title>CarritoComponent</title>
<polygon fill="#ffffb3" stroke="black" points="1000.49,-122 879.51,-122 879.51,-86 1000.49,-86 1000.49,-122"/>
<text text-anchor="middle" x="940" y="-99.8" font-family="Times,serif" font-size="14.00">CarritoComponent</text>
</g>
<!-- CarritoModule -->
<g id="node9" class="node">
<title>CarritoModule</title>
<polygon fill="#8dd3c7" stroke="black" points="911.7,-187 908.7,-191 887.7,-191 884.7,-187 812.3,-187 812.3,-151 911.7,-151 911.7,-187"/>
<text text-anchor="middle" x="862" y="-164.8" font-family="Times,serif" font-size="14.00">CarritoModule</text>
</g>
<!-- CarritoComponent&#45;&gt;CarritoModule -->
<g id="edge6" class="edge">
<title>CarritoComponent&#45;&gt;CarritoModule</title>
<path fill="none" stroke="black" d="M895.55,-122.11C895.55,-122.11 895.55,-140.99 895.55,-140.99"/>
<polygon fill="black" stroke="black" points="892.05,-140.99 895.55,-150.99 899.05,-140.99 892.05,-140.99"/>
</g>
<!-- CarritoRoutingModule -->
<g id="node10" class="node">
<title>CarritoRoutingModule</title>
<polygon fill="#8dd3c7" stroke="black" points="856.32,-122 853.32,-126 832.32,-126 829.32,-122 711.68,-122 711.68,-86 856.32,-86 856.32,-122"/>
<text text-anchor="middle" x="784" y="-99.8" font-family="Times,serif" font-size="14.00">CarritoRoutingModule</text>
</g>
<!-- CarritoRoutingModule&#45;&gt;CarritoModule -->
<g id="edge7" class="edge">
<title>CarritoRoutingModule&#45;&gt;CarritoModule</title>
<path fill="none" stroke="black" d="M834.28,-122.11C834.28,-122.11 834.28,-140.99 834.28,-140.99"/>
<polygon fill="black" stroke="black" points="830.78,-140.99 834.28,-150.99 837.78,-140.99 830.78,-140.99"/>
</g>
<!-- CategoriaProductoComponent -->
<g id="node11" class="node">
<title>CategoriaProductoComponent</title>
<polygon fill="#ffffb3" stroke="black" points="1460.3,-122 1273.7,-122 1273.7,-86 1460.3,-86 1460.3,-122"/>
<text text-anchor="middle" x="1367" y="-99.8" font-family="Times,serif" font-size="14.00">CategoriaProductoComponent</text>
</g>
<!-- CategoriaProductoModule -->
<g id="node12" class="node">
<title>CategoriaProductoModule</title>
<polygon fill="#8dd3c7" stroke="black" points="1338.02,-187 1335.02,-191 1314.02,-191 1311.02,-187 1173.98,-187 1173.98,-151 1338.02,-151 1338.02,-187"/>
<text text-anchor="middle" x="1256" y="-164.8" font-family="Times,serif" font-size="14.00">CategoriaProductoModule</text>
</g>
<!-- CategoriaProductoComponent&#45;&gt;CategoriaProductoModule -->
<g id="edge8" class="edge">
<title>CategoriaProductoComponent&#45;&gt;CategoriaProductoModule</title>
<path fill="none" stroke="black" d="M1306.05,-122.11C1306.05,-122.11 1306.05,-140.99 1306.05,-140.99"/>
<polygon fill="black" stroke="black" points="1302.55,-140.99 1306.05,-150.99 1309.55,-140.99 1302.55,-140.99"/>
</g>
<!-- CategoriaProductoRoutingModule -->
<g id="node13" class="node">
<title>CategoriaProductoRoutingModule</title>
<polygon fill="#8dd3c7" stroke="black" points="1249.64,-122 1246.64,-126 1225.64,-126 1222.64,-122 1040.36,-122 1040.36,-86 1249.64,-86 1249.64,-122"/>
<text text-anchor="middle" x="1145" y="-99.8" font-family="Times,serif" font-size="14.00">CategoriaProductoRoutingModule</text>
</g>
<!-- CategoriaProductoRoutingModule&#45;&gt;CategoriaProductoModule -->
<g id="edge9" class="edge">
<title>CategoriaProductoRoutingModule&#45;&gt;CategoriaProductoModule</title>
<path fill="none" stroke="black" d="M1211.78,-122.11C1211.78,-122.11 1211.78,-140.99 1211.78,-140.99"/>
<polygon fill="black" stroke="black" points="1208.28,-140.99 1211.78,-150.99 1215.28,-140.99 1208.28,-140.99"/>
</g>
<!-- FooterComponent -->
<g id="node14" class="node">
<title>FooterComponent</title>
<polygon fill="#ffffb3" stroke="black" points="1761.88,-122 1644.12,-122 1644.12,-86 1761.88,-86 1761.88,-122"/>
<text text-anchor="middle" x="1703" y="-99.8" font-family="Times,serif" font-size="14.00">FooterComponent</text>
</g>
<!-- ComponentsModule -->
<g id="node16" class="node">
<title>ComponentsModule</title>
<polygon fill="#8dd3c7" stroke="black" points="1631.33,-187 1628.33,-191 1607.33,-191 1604.33,-187 1500.67,-187 1500.67,-151 1631.33,-151 1631.33,-187"/>
<text text-anchor="middle" x="1566" y="-164.8" font-family="Times,serif" font-size="14.00">ComponentsModule</text>
</g>
<!-- FooterComponent&#45;&gt;ComponentsModule -->
<g id="edge10" class="edge">
<title>FooterComponent&#45;&gt;ComponentsModule</title>
<path fill="none" stroke="black" d="M1722.65,-122.02C1722.65,-139.37 1722.65,-163 1722.65,-163 1722.65,-163 1641.52,-163 1641.52,-163"/>
<polygon fill="black" stroke="black" points="1641.52,-159.5 1631.52,-163 1641.52,-166.5 1641.52,-159.5"/>
</g>
<!-- HeaderComponent -->
<g id="node15" class="node">
<title>HeaderComponent</title>
<polygon fill="#ffffb3" stroke="black" points="1625.74,-122 1504.26,-122 1504.26,-86 1625.74,-86 1625.74,-122"/>
<text text-anchor="middle" x="1565" y="-99.8" font-family="Times,serif" font-size="14.00">HeaderComponent</text>
</g>
<!-- HeaderComponent&#45;&gt;ComponentsModule -->
<g id="edge11" class="edge">
<title>HeaderComponent&#45;&gt;ComponentsModule</title>
<path fill="none" stroke="black" d="M1565,-122.11C1565,-122.11 1565,-140.99 1565,-140.99"/>
<polygon fill="black" stroke="black" points="1561.5,-140.99 1565,-150.99 1568.5,-140.99 1561.5,-140.99"/>
</g>
<!-- FooterComponent  -->
<g id="node17" class="node">
<title>FooterComponent </title>
<polygon fill="#fb8072" stroke="black" points="1764.88,-252 1643.12,-252 1643.12,-216 1764.88,-216 1764.88,-252"/>
<text text-anchor="middle" x="1704" y="-229.8" font-family="Times,serif" font-size="14.00">FooterComponent </text>
</g>
<!-- ComponentsModule&#45;&gt;FooterComponent  -->
<g id="edge12" class="edge">
<title>ComponentsModule&#45;&gt;FooterComponent </title>
<path fill="none" stroke="black" stroke-dasharray="5,2" d="M1631.2,-175C1658.21,-175 1683.35,-175 1683.35,-175 1683.35,-175 1683.35,-205.98 1683.35,-205.98"/>
<polygon fill="black" stroke="black" points="1679.85,-205.98 1683.35,-215.98 1686.85,-205.98 1679.85,-205.98"/>
</g>
<!-- HeaderComponent  -->
<g id="node18" class="node">
<title>HeaderComponent </title>
<polygon fill="#fb8072" stroke="black" points="1625.74,-252 1500.26,-252 1500.26,-216 1625.74,-216 1625.74,-252"/>
<text text-anchor="middle" x="1563" y="-229.8" font-family="Times,serif" font-size="14.00">HeaderComponent </text>
</g>
<!-- ComponentsModule&#45;&gt;HeaderComponent  -->
<g id="edge13" class="edge">
<title>ComponentsModule&#45;&gt;HeaderComponent </title>
<path fill="none" stroke="black" stroke-dasharray="5,2" d="M1563.23,-187.11C1563.23,-187.11 1563.23,-205.99 1563.23,-205.99"/>
<polygon fill="black" stroke="black" points="1559.73,-205.99 1563.23,-215.99 1566.73,-205.99 1559.73,-205.99"/>
</g>
<!-- HomeComponent -->
<g id="node19" class="node">
<title>HomeComponent</title>
<polygon fill="#ffffb3" stroke="black" points="2082.55,-122 1967.45,-122 1967.45,-86 2082.55,-86 2082.55,-122"/>
<text text-anchor="middle" x="2025" y="-99.8" font-family="Times,serif" font-size="14.00">HomeComponent</text>
</g>
<!-- HomeModule -->
<g id="node20" class="node">
<title>HomeModule</title>
<polygon fill="#8dd3c7" stroke="black" points="1995.76,-187 1992.76,-191 1971.76,-191 1968.76,-187 1902.24,-187 1902.24,-151 1995.76,-151 1995.76,-187"/>
<text text-anchor="middle" x="1949" y="-164.8" font-family="Times,serif" font-size="14.00">HomeModule</text>
</g>
<!-- HomeComponent&#45;&gt;HomeModule -->
<g id="edge14" class="edge">
<title>HomeComponent&#45;&gt;HomeModule</title>
<path fill="none" stroke="black" d="M1981.55,-122.11C1981.55,-122.11 1981.55,-140.99 1981.55,-140.99"/>
<polygon fill="black" stroke="black" points="1978.05,-140.99 1981.55,-150.99 1985.05,-140.99 1978.05,-140.99"/>
</g>
<!-- HomeRoutingModule -->
<g id="node21" class="node">
<title>HomeRoutingModule</title>
<polygon fill="#8dd3c7" stroke="black" points="1943.38,-122 1940.38,-126 1919.38,-126 1916.38,-122 1804.62,-122 1804.62,-86 1943.38,-86 1943.38,-122"/>
<text text-anchor="middle" x="1874" y="-99.8" font-family="Times,serif" font-size="14.00">HomeRoutingModule</text>
</g>
<!-- HomeRoutingModule&#45;&gt;HomeModule -->
<g id="edge15" class="edge">
<title>HomeRoutingModule&#45;&gt;HomeModule</title>
<path fill="none" stroke="black" d="M1922.78,-122.11C1922.78,-122.11 1922.78,-140.99 1922.78,-140.99"/>
<polygon fill="black" stroke="black" points="1919.28,-140.99 1922.78,-150.99 1926.28,-140.99 1919.28,-140.99"/>
</g>
<!-- LoginComponent -->
<g id="node22" class="node">
<title>LoginComponent</title>
<polygon fill="#ffffb3" stroke="black" points="2399.28,-122 2284.72,-122 2284.72,-86 2399.28,-86 2399.28,-122"/>
<text text-anchor="middle" x="2342" y="-99.8" font-family="Times,serif" font-size="14.00">LoginComponent</text>
</g>
<!-- LoginModule -->
<g id="node23" class="node">
<title>LoginModule</title>
<polygon fill="#8dd3c7" stroke="black" points="2313.49,-187 2310.49,-191 2289.49,-191 2286.49,-187 2220.51,-187 2220.51,-151 2313.49,-151 2313.49,-187"/>
<text text-anchor="middle" x="2267" y="-164.8" font-family="Times,serif" font-size="14.00">LoginModule</text>
</g>
<!-- LoginComponent&#45;&gt;LoginModule -->
<g id="edge16" class="edge">
<title>LoginComponent&#45;&gt;LoginModule</title>
<path fill="none" stroke="black" d="M2299.05,-122.11C2299.05,-122.11 2299.05,-140.99 2299.05,-140.99"/>
<polygon fill="black" stroke="black" points="2295.55,-140.99 2299.05,-150.99 2302.55,-140.99 2295.55,-140.99"/>
</g>
<!-- LoginRoutingModule -->
<g id="node24" class="node">
<title>LoginRoutingModule</title>
<polygon fill="#8dd3c7" stroke="black" points="2261.11,-122 2258.11,-126 2237.11,-126 2234.11,-122 2122.89,-122 2122.89,-86 2261.11,-86 2261.11,-122"/>
<text text-anchor="middle" x="2192" y="-99.8" font-family="Times,serif" font-size="14.00">LoginRoutingModule</text>
</g>
<!-- LoginRoutingModule&#45;&gt;LoginModule -->
<g id="edge17" class="edge">
<title>LoginRoutingModule&#45;&gt;LoginModule</title>
<path fill="none" stroke="black" d="M2240.78,-122.11C2240.78,-122.11 2240.78,-140.99 2240.78,-140.99"/>
<polygon fill="black" stroke="black" points="2237.28,-140.99 2240.78,-150.99 2244.28,-140.99 2237.28,-140.99"/>
</g>
<!-- PerfilComponent -->
<g id="node25" class="node">
<title>PerfilComponent</title>
<polygon fill="#ffffb3" stroke="black" points="2711.43,-122 2598.57,-122 2598.57,-86 2711.43,-86 2711.43,-122"/>
<text text-anchor="middle" x="2655" y="-99.8" font-family="Times,serif" font-size="14.00">PerfilComponent</text>
</g>
<!-- PerfilModule -->
<g id="node26" class="node">
<title>PerfilModule</title>
<polygon fill="#8dd3c7" stroke="black" points="2626.15,-187 2623.15,-191 2602.15,-191 2599.15,-187 2535.85,-187 2535.85,-151 2626.15,-151 2626.15,-187"/>
<text text-anchor="middle" x="2581" y="-164.8" font-family="Times,serif" font-size="14.00">PerfilModule</text>
</g>
<!-- PerfilComponent&#45;&gt;PerfilModule -->
<g id="edge18" class="edge">
<title>PerfilComponent&#45;&gt;PerfilModule</title>
<path fill="none" stroke="black" d="M2612.55,-122.11C2612.55,-122.11 2612.55,-140.99 2612.55,-140.99"/>
<polygon fill="black" stroke="black" points="2609.05,-140.99 2612.55,-150.99 2616.05,-140.99 2609.05,-140.99"/>
</g>
<!-- PerfilRoutingModule -->
<g id="node27" class="node">
<title>PerfilRoutingModule</title>
<polygon fill="#8dd3c7" stroke="black" points="2574.77,-122 2571.77,-126 2550.77,-126 2547.77,-122 2439.23,-122 2439.23,-86 2574.77,-86 2574.77,-122"/>
<text text-anchor="middle" x="2507" y="-99.8" font-family="Times,serif" font-size="14.00">PerfilRoutingModule</text>
</g>
<!-- PerfilRoutingModule&#45;&gt;PerfilModule -->
<g id="edge19" class="edge">
<title>PerfilRoutingModule&#45;&gt;PerfilModule</title>
<path fill="none" stroke="black" d="M2555.28,-122.11C2555.28,-122.11 2555.28,-140.99 2555.28,-140.99"/>
<polygon fill="black" stroke="black" points="2551.78,-140.99 2555.28,-150.99 2558.78,-140.99 2551.78,-140.99"/>
</g>
<!-- RecuperarPwComponent -->
<g id="node28" class="node">
<title>RecuperarPwComponent</title>
<polygon fill="#ffffb3" stroke="black" points="3111.24,-122 2954.76,-122 2954.76,-86 3111.24,-86 3111.24,-122"/>
<text text-anchor="middle" x="3033" y="-99.8" font-family="Times,serif" font-size="14.00">RecuperarPwComponent</text>
</g>
<!-- RecuperarPwModule -->
<g id="node29" class="node">
<title>RecuperarPwModule</title>
<polygon fill="#8dd3c7" stroke="black" points="3004.46,-187 3001.46,-191 2980.46,-191 2977.46,-187 2869.54,-187 2869.54,-151 3004.46,-151 3004.46,-187"/>
<text text-anchor="middle" x="2937" y="-164.8" font-family="Times,serif" font-size="14.00">RecuperarPwModule</text>
</g>
<!-- RecuperarPwComponent&#45;&gt;RecuperarPwModule -->
<g id="edge20" class="edge">
<title>RecuperarPwComponent&#45;&gt;RecuperarPwModule</title>
<path fill="none" stroke="black" d="M2979.55,-122.11C2979.55,-122.11 2979.55,-140.99 2979.55,-140.99"/>
<polygon fill="black" stroke="black" points="2976.05,-140.99 2979.55,-150.99 2983.05,-140.99 2976.05,-140.99"/>
</g>
<!-- RecuperarPwRoutingModule -->
<g id="node30" class="node">
<title>RecuperarPwRoutingModule</title>
<polygon fill="#8dd3c7" stroke="black" points="2931.07,-122 2928.07,-126 2907.07,-126 2904.07,-122 2750.93,-122 2750.93,-86 2931.07,-86 2931.07,-122"/>
<text text-anchor="middle" x="2841" y="-99.8" font-family="Times,serif" font-size="14.00">RecuperarPwRoutingModule</text>
</g>
<!-- RecuperarPwRoutingModule&#45;&gt;RecuperarPwModule -->
<g id="edge21" class="edge">
<title>RecuperarPwRoutingModule&#45;&gt;RecuperarPwModule</title>
<path fill="none" stroke="black" d="M2900.28,-122.11C2900.28,-122.11 2900.28,-140.99 2900.28,-140.99"/>
<polygon fill="black" stroke="black" points="2896.78,-140.99 2900.28,-150.99 2903.78,-140.99 2896.78,-140.99"/>
</g>
<!-- RegistroComponent -->
<g id="node31" class="node">
<title>RegistroComponent</title>
<polygon fill="#ffffb3" stroke="black" points="3455.27,-122 3326.73,-122 3326.73,-86 3455.27,-86 3455.27,-122"/>
<text text-anchor="middle" x="3391" y="-99.8" font-family="Times,serif" font-size="14.00">RegistroComponent</text>
</g>
<!-- RegistroModule -->
<g id="node32" class="node">
<title>RegistroModule</title>
<polygon fill="#8dd3c7" stroke="black" points="3362.49,-187 3359.49,-191 3338.49,-191 3335.49,-187 3255.51,-187 3255.51,-151 3362.49,-151 3362.49,-187"/>
<text text-anchor="middle" x="3309" y="-164.8" font-family="Times,serif" font-size="14.00">RegistroModule</text>
</g>
<!-- RegistroComponent&#45;&gt;RegistroModule -->
<g id="edge22" class="edge">
<title>RegistroComponent&#45;&gt;RegistroModule</title>
<path fill="none" stroke="black" d="M3344.55,-122.11C3344.55,-122.11 3344.55,-140.99 3344.55,-140.99"/>
<polygon fill="black" stroke="black" points="3341.05,-140.99 3344.55,-150.99 3348.05,-140.99 3341.05,-140.99"/>
</g>
<!-- RegistroRoutingModule -->
<g id="node33" class="node">
<title>RegistroRoutingModule</title>
<polygon fill="#8dd3c7" stroke="black" points="3303.11,-122 3300.11,-126 3279.11,-126 3276.11,-122 3150.89,-122 3150.89,-86 3303.11,-86 3303.11,-122"/>
<text text-anchor="middle" x="3227" y="-99.8" font-family="Times,serif" font-size="14.00">RegistroRoutingModule</text>
</g>
<!-- RegistroRoutingModule&#45;&gt;RegistroModule -->
<g id="edge23" class="edge">
<title>RegistroRoutingModule&#45;&gt;RegistroModule</title>
<path fill="none" stroke="black" d="M3279.28,-122.11C3279.28,-122.11 3279.28,-140.99 3279.28,-140.99"/>
<polygon fill="black" stroke="black" points="3275.78,-140.99 3279.28,-150.99 3282.78,-140.99 3275.78,-140.99"/>
</g>
</g>
</svg>
